<svg width="24" height="23" viewBox="0 0 24 23" fill="none" xmlns="http://www.w3.org/2000/svg">
<path fill-rule="evenodd" clip-rule="evenodd" d="M23.5104 11.3532C23.5104 5.38346 18.3425 0.542969 11.9691 0.542969C5.59557 0.542969 0.427734 5.38346 0.427734 11.3532C0.427734 16.7487 4.64753 21.221 10.1657 22.0327L10.1657 14.4791L7.23454 14.4791L7.23454 11.3532L10.1657 11.3532L10.1657 8.97161C10.1657 6.26276 11.8892 4.76525 14.5251 4.76525C15.788 4.76525 17.1091 4.97663 17.1091 4.97663L17.1091 7.63721L15.653 7.63721C14.2201 7.63721 13.7719 8.47018 13.7719 9.32632L13.7719 11.3532L16.9725 11.3532L16.4614 14.4791L13.7724 14.4791L13.7724 22.0337C19.2906 21.2224 23.5104 16.7502 23.5104 11.3532Z" fill="#1C1F35"/>
</svg>
