<svg width="20" height="20" viewBox="0 0 20 20" fill="none" xmlns="http://www.w3.org/2000/svg">
<path d="M14.0759 2.03236C15.173 2.03551 16.2242 2.45628 17 3.20276C17.7757 3.94925 18.213 4.9608 18.2162 6.01648V13.9839C18.213 15.0396 17.7757 16.0511 17 16.7976C16.2242 17.5441 15.173 17.9649 14.0759 17.968H5.79618C4.69911 17.9649 3.6479 17.5441 2.87215 16.7976C2.0964 16.0511 1.65914 15.0396 1.65586 13.9839V6.01648C1.65914 4.9608 2.0964 3.94925 2.87215 3.20276C3.6479 2.45628 4.69911 2.03551 5.79618 2.03236H14.0759V2.03236ZM14.0759 0.438965H5.79618C2.60821 0.438965 0 2.94878 0 6.01648V13.9839C0 17.0516 2.60821 19.5614 5.79618 19.5614H14.0759C17.2639 19.5614 19.8721 17.0516 19.8721 13.9839V6.01648C19.8721 2.94878 17.2639 0.438965 14.0759 0.438965V0.438965Z" fill="white"/>
<path d="M15.3187 6.01677C15.073 6.01677 14.8329 5.94668 14.6286 5.81535C14.4244 5.68403 14.2652 5.49737 14.1712 5.27898C14.0772 5.0606 14.0526 4.82029 14.1005 4.58846C14.1484 4.35662 14.2667 4.14366 14.4404 3.97652C14.6141 3.80937 14.8354 3.69555 15.0764 3.64943C15.3173 3.60331 15.567 3.62698 15.794 3.71744C16.0209 3.8079 16.2149 3.96108 16.3513 4.15763C16.4878 4.35417 16.5607 4.58524 16.5607 4.82162C16.561 4.97866 16.5291 5.13423 16.4668 5.27938C16.4045 5.42454 16.3131 5.55642 16.1977 5.66747C16.0823 5.77852 15.9452 5.86654 15.7944 5.92648C15.6435 5.98642 15.4819 6.01711 15.3187 6.01677V6.01677ZM9.93678 6.81325C10.5919 6.81325 11.2322 7.00018 11.7769 7.3504C12.3216 7.70061 12.7461 8.19839 12.9968 8.78077C13.2475 9.36316 13.3131 10.004 13.1853 10.6223C13.0575 11.2405 12.742 11.8084 12.2788 12.2542C11.8156 12.6999 11.2254 13.0035 10.5829 13.1264C9.94045 13.2494 9.27449 13.1863 8.66927 12.9451C8.06405 12.7038 7.54676 12.2953 7.18281 11.7712C6.81887 11.2471 6.62461 10.6308 6.62461 10.0005C6.62555 9.15544 6.97481 8.34529 7.59576 7.74777C8.21671 7.15024 9.05863 6.81416 9.93678 6.81325V6.81325ZM9.93678 5.21986C8.9542 5.21986 7.99368 5.50024 7.17669 6.02554C6.3597 6.55084 5.72294 7.29747 5.34692 8.17101C4.9709 9.04455 4.87252 10.0058 5.06421 10.9331C5.2559 11.8605 5.72906 12.7123 6.42385 13.3809C7.11864 14.0494 8.00386 14.5048 8.96756 14.6892C9.93127 14.8737 10.9302 14.779 11.838 14.4172C12.7457 14.0553 13.5216 13.4426 14.0675 12.6564C14.6134 11.8703 14.9048 10.946 14.9048 10.0005C14.9048 8.73257 14.3814 7.51661 13.4497 6.62007C12.518 5.72353 11.2544 5.21986 9.93678 5.21986V5.21986Z" fill="white"/>
</svg>
