<svg width="23" height="23" viewBox="0 0 23 23" fill="none" xmlns="http://www.w3.org/2000/svg">
<path d="M16.4223 2.3341C17.6555 2.33764 18.8372 2.81062 19.7092 3.64974C20.5812 4.48886 21.0727 5.62594 21.0764 6.81263L21.0764 15.7687C21.0727 16.9554 20.5812 18.0925 19.7092 18.9316C18.8372 19.7708 17.6555 20.2437 16.4223 20.2473L7.11506 20.2473C5.88185 20.2437 4.7002 19.7708 3.82818 18.9316C2.95616 18.0925 2.46464 16.9554 2.46095 15.7687L2.46095 6.81263C2.46464 5.62594 2.95616 4.48886 3.82818 3.64974C4.7002 2.81062 5.88185 2.33764 7.11506 2.3341L16.4223 2.3341ZM16.4223 0.542969L7.11506 0.542969C3.53149 0.542969 0.599609 3.36424 0.599609 6.81263L0.599609 15.7687C0.599609 19.2171 3.53149 22.0384 7.11506 22.0384L16.4223 22.0384C20.0059 22.0384 22.9377 19.2171 22.9377 15.7687L22.9377 6.81263C22.9377 3.36424 20.0059 0.542969 16.4223 0.542969Z" fill="#1C1F35"/>
<path d="M17.8179 6.81303C17.5417 6.81303 17.2718 6.73424 17.0422 6.58661C16.8126 6.43899 16.6337 6.22917 16.528 5.98369C16.4223 5.7382 16.3947 5.46807 16.4486 5.20747C16.5024 4.94686 16.6354 4.70748 16.8307 4.51959C17.0259 4.3317 17.2747 4.20375 17.5455 4.15191C17.8163 4.10008 18.097 4.12668 18.3522 4.22836C18.6073 4.33005 18.8253 4.50224 18.9787 4.72317C19.1321 4.94411 19.214 5.20385 19.214 5.46956C19.2144 5.6461 19.1786 5.82097 19.1085 5.98413C19.0385 6.1473 18.9357 6.29556 18.806 6.42038C18.6762 6.54521 18.5222 6.64415 18.3526 6.71154C18.1831 6.77892 18.0013 6.81341 17.8179 6.81303ZM11.7681 7.70835C12.5045 7.70835 13.2243 7.91847 13.8366 8.31215C14.4489 8.70583 14.9261 9.26537 15.2079 9.92003C15.4897 10.5747 15.5634 11.2951 15.4198 11.99C15.2761 12.685 14.9215 13.3234 14.4008 13.8245C13.8801 14.3255 13.2167 14.6667 12.4945 14.805C11.7723 14.9432 11.0237 14.8723 10.3433 14.6011C9.663 14.3299 9.08152 13.8707 8.67241 13.2815C8.2633 12.6924 8.04494 11.9997 8.04494 11.2911C8.046 10.3412 8.4386 9.4305 9.1366 8.75883C9.83461 8.08716 10.781 7.70937 11.7681 7.70835ZM11.7681 5.91723C10.6636 5.91723 9.5839 6.2324 8.66553 6.82288C7.74716 7.41337 7.03137 8.25265 6.60869 9.2346C6.18601 10.2165 6.07542 11.297 6.2909 12.3395C6.50638 13.3819 7.03826 14.3394 7.81927 15.091C8.60028 15.8425 9.59535 16.3543 10.6786 16.5617C11.7619 16.769 12.8848 16.6626 13.9052 16.2559C14.9257 15.8491 15.7979 15.1604 16.4115 14.2766C17.0251 13.3929 17.3527 12.3539 17.3527 11.2911C17.3527 9.86585 16.7643 8.49899 15.717 7.49119C14.6697 6.4834 13.2492 5.91723 11.7681 5.91723Z" fill="#1C1F35"/>
</svg>
