<svg width="62" height="62" viewBox="0 0 62 62" fill="none" xmlns="http://www.w3.org/2000/svg">
<path d="M42.0723 28.7858V18.8215H47.6691C50.5036 18.8215 53.0584 20.5309 54.1397 23.1511L56.1801 28.0951C56.3159 28.4242 56.0739 28.7858 55.7179 28.7858H42.0723Z" fill="#FFD550" stroke="#1C1F35" stroke-width="2"/>
<path d="M4.42773 35.4285H42.0706" stroke="#1C1F35" stroke-width="2" stroke-linecap="round" stroke-linejoin="round"/>
<path d="M45.3929 53.1431C49.0616 53.1431 52.0357 50.169 52.0357 46.5003C52.0357 42.8315 49.0616 39.8574 45.3929 39.8574C41.7241 39.8574 38.75 42.8315 38.75 46.5003C38.75 50.169 41.7241 53.1431 45.3929 53.1431Z" stroke="#1C1F35" stroke-width="2" stroke-linecap="round" stroke-linejoin="round"/>
<path d="M16.6077 53.1431C20.2764 53.1431 23.2506 50.169 23.2506 46.5003C23.2506 42.8315 20.2764 39.8574 16.6077 39.8574C12.939 39.8574 9.96484 42.8315 9.96484 46.5003C9.96484 50.169 12.939 53.1431 16.6077 53.1431Z" fill="#FFD550" stroke="#1C1F35" stroke-width="2" stroke-linecap="round" stroke-linejoin="round"/>
<path d="M38.75 45.3926H23.25" stroke="#1C1F35" stroke-width="2" stroke-linecap="round" stroke-linejoin="round"/>
<path d="M9.90809 45.3926H6.30988C5.8107 45.3926 5.33197 45.1884 4.979 44.8251C4.62603 44.4617 4.42773 43.9689 4.42773 43.4551V16.3301C4.42773 15.8162 4.62603 15.3234 4.979 14.9601C5.33197 14.5967 5.8107 14.3926 6.30988 14.3926H42.0706V40.3551" stroke="#1C1F35" stroke-width="2" stroke-linecap="round" stroke-linejoin="round"/>
<path d="M42.0723 28.7861H57.5723V43.548C57.5723 44.0374 57.3681 44.5068 57.0048 44.8528C56.6414 45.1989 56.1486 45.3933 55.6348 45.3933H51.8982" stroke="#1C1F35" stroke-width="2" stroke-linecap="round" stroke-linejoin="round"/>
<path d="M8.85742 28.0947L8.85742 18.8215" stroke="#1C1F35" stroke-width="2" stroke-linecap="round" stroke-linejoin="round"/>
<path d="M28.7854 31L38.0586 31" stroke="#1C1F35" stroke-width="2" stroke-linecap="round" stroke-linejoin="round"/>
<path d="M28.786 49.7148L32.1074 49.7148" stroke="#1C1F35" stroke-width="2" stroke-linecap="round" stroke-linejoin="round"/>
</svg>
