<svg width="73" height="73" viewBox="0 0 73 73" fill="none" xmlns="http://www.w3.org/2000/svg">
<circle cx="36.4252" cy="36.5" r="36.4252" fill="url(#paint0_linear_103_495)"/>
<path d="M34.2677 25.8245C34.7687 25.8245 35.1982 26.0035 35.5561 26.3614C35.8424 26.7192 35.9856 27.1487 35.9856 27.6497C35.9856 28.2224 35.8782 28.795 35.6635 29.3676L29.9731 44.0767C29.6152 44.7925 29.2573 45.3651 28.8994 45.7946C28.4699 46.2956 27.79 46.5462 26.8595 46.5462L23.3164 46.5462C22.7438 46.5462 22.3143 46.3314 22.028 45.902C21.6701 45.4725 21.5627 44.8999 21.7059 44.1841L24.0679 28.9381C24.1395 28.0792 24.4258 27.3276 24.9269 26.6835C25.4279 26.1108 26.1795 25.8245 27.1815 25.8245L34.2677 25.8245ZM51.4463 25.8245C51.9473 25.8245 52.3768 26.0035 52.7347 26.3614C53.021 26.7192 53.1641 27.1487 53.1641 27.6497C53.1641 28.2224 53.0567 28.795 52.842 29.3676L47.1516 44.0767C46.7937 44.7925 46.4001 45.3651 45.9706 45.7946C45.5411 46.2956 44.8969 46.5462 44.038 46.5462H40.4949C39.9223 46.5462 39.4928 46.3314 39.2065 45.902C38.8487 45.4725 38.7413 44.8999 38.8844 44.1841L41.2465 28.9381C41.3181 28.0792 41.6044 27.3277 42.1054 26.6835C42.6065 26.1108 43.3222 25.8245 44.2527 25.8245L51.4463 25.8245Z" fill="#091242"/>
<defs>
<linearGradient id="paint0_linear_103_495" x1="-2.06535" y1="15.859" x2="89.5811" y2="22.3672" gradientUnits="userSpaceOnUse">
<stop stop-color="#FFB629"/>
<stop offset="0.507189" stop-color="#FFDA56"/>
<stop offset="1" stop-color="#FFD7A6"/>
</linearGradient>
</defs>
</svg>
