<svg width="23" height="18" viewBox="0 0 23 18" fill="none" xmlns="http://www.w3.org/2000/svg">
<path d="M22.3373 2.58411C21.529 2.93507 20.6737 3.16629 19.7986 3.27047C20.7183 2.73232 21.4099 1.87737 21.7438 0.865968C20.8743 1.37405 19.9246 1.73054 18.9353 1.92018C18.5188 1.48393 18.0178 1.13688 17.4629 0.900127C16.9079 0.663374 16.3106 0.541862 15.7072 0.542976C13.2641 0.542976 11.2871 2.4899 11.2871 4.88991C11.2853 5.22374 11.3236 5.55658 11.4011 5.88132C9.64928 5.79925 7.93388 5.35268 6.36465 4.57017C4.79543 3.78767 3.40694 2.68646 2.28801 1.337C1.89546 1.99829 1.68786 2.7528 1.6869 3.52168C1.6869 5.02898 2.47386 6.36132 3.66216 7.14188C2.95813 7.12519 2.26852 6.93898 1.65189 6.59908V6.65291C1.65189 8.76133 3.17822 10.5154 5.19836 10.9146C4.81848 11.0158 4.42701 11.0671 4.03386 11.0671C3.75489 11.0676 3.47656 11.0406 3.20291 10.9864C3.76451 12.7135 5.39903 13.9696 7.33523 14.0055C5.76193 15.2171 3.83033 15.872 1.84403 15.8672C1.49145 15.8666 1.13921 15.8457 0.789063 15.8044C2.80974 17.0937 5.15861 17.7757 7.5561 17.7692C15.6977 17.7692 20.1456 11.1434 20.1456 5.39683C20.1456 5.20842 20.1407 5.02001 20.1317 4.83608C20.995 4.22242 21.7419 3.45982 22.3373 2.58411Z" fill="#1C1F35"/>
</svg>
